<svg xmlns="http://www.w3.org/2000/svg" xmlns:xlink="http://www.w3.org/1999/xlink" width="500" height="492" viewBox="0 0 543.94 535.237"><defs><marker id="a" orient="auto" overflow="visible"><path fill-rule="evenodd" stroke="#000" stroke-width="1.066" d="M-10 0l-4 4L0 0l-14-4z"/></marker></defs><g transform="translate(-43.199 -214.893)"><path fill="none" stroke="#000" stroke-linecap="round" stroke-width="6" d="M176.857 222.362v519.286"/><path fill="none" stroke="#000" stroke-linecap="round" stroke-width="6" d="M428.857 222.362v519.286"/><path id="d" fill="none" stroke="#000" marker-end="url(#a)" d="M188.571 250.22l228.748 31.292"/><path id="e" fill="none" stroke="#000" marker-end="url(#a)" d="M188.571 274.22l228.748 31.292"/><path fill="none" stroke="#000" marker-end="url(#a)" d="M417.32 312.22L188.57 343.511"/><g aria-label="FIN" font-family="Droid Sans" font-size="18" font-weight="400" letter-spacing="0" word-spacing="0" style="line-height:0%;-inkscape-font-specification:'Droid Sans';text-align:start"><path d="M213.983 337.301l-1.62.222-1.741-12.731 6.61-.904.195 1.428-4.99.682.615 4.494 4.658-.638.196 1.429-4.66.637z"/><path d="M224.737 335.83l-4.615.632-.121-.889 1.449-.562-1.401-10.24-1.547-.152-.121-.888 4.615-.632.121.888-1.449.562 1.401 10.24 1.547.153z"/><path d="M236.737 334.189l-1.872.256-7.703-9.68-.07.01q.145.663.27 1.32.112.561.214 1.177.11.615.179 1.111l.945 6.906-1.498.205-1.742-12.731 1.855-.254 7.67 9.631.06-.008q-.117-.658-.24-1.298-.046-.277-.103-.562-.05-.295-.106-.58l-.095-.564-.068-.496-.953-6.966 1.515-.208z"/></g><path fill="none" stroke="#000" marker-end="url(#a)" d="M188.571 348.22l228.748 31.292"/><g aria-label="FIN,ACK" font-family="Droid Sans" font-size="18" font-weight="400" letter-spacing="0" word-spacing="0" style="line-height:0%;-inkscape-font-specification:'Droid Sans';text-align:start"><path d="M333.542 364.535l-1.62-.221 1.742-12.732 6.61.905-.196 1.428-4.99-.683-.614 4.493 4.659.638-.196 1.428-4.659-.637z"/><path d="M344.297 366.006l-4.616-.631.122-.888 1.547-.152 1.4-10.241-1.449-.562.122-.888 4.615.631-.121.888-1.547.153-1.4 10.24 1.448.562z"/><path d="M356.296 367.648l-1.872-.256-4.82-11.393-.07-.01q-.039.677-.095 1.344-.042.57-.11 1.191-.058.622-.126 1.118l-.944 6.906-1.498-.205 1.742-12.731 1.854.254 4.8 11.337.062.008q.064-.665.118-1.315.03-.28.051-.57.032-.296.054-.586l.06-.569.068-.496.953-6.966 1.515.207z"/><path d="M361.456 366.242l.103.219q-.186.453-.433.96-.238.51-.52 1.02-.275.513-.574 1.013-.291.51-.576.968l-1.202-.164q.204-.514.404-1.072.21-.557.401-1.116.2-.55.37-1.076.17-.535.303-.987z"/><path d="M371.666 369.75l-.854-4.135-4.746-.65-1.95 3.753-1.637-.224 6.425-12.144 1.48.203 2.936 13.424zm-1.171-5.642l-.784-3.868q-.03-.164-.078-.401-.039-.236-.081-.508-.043-.272-.083-.562-.04-.298-.072-.577-.098.261-.216.538-.117.277-.233.536-.114.25-.223.466-.1.208-.172.35l-1.768 3.519z"/><path d="M381.614 359.41q-.932-.127-1.738.126-.805.245-1.436.833-.622.59-1.047 1.498-.418.91-.58 2.103-.169 1.228-.047 2.22.131.985.555 1.708.425.724 1.145 1.168.72.445 1.747.585.775.106 1.492.053.718-.061 1.425-.168l-.193 1.41q-.358.085-.712.143-.352.049-.735.059-.374.01-.804-.022-.423-.022-.937-.092-1.428-.196-2.409-.809-.98-.613-1.55-1.57-.562-.954-.727-2.21-.165-1.256.036-2.727.198-1.446.737-2.596.547-1.15 1.397-1.912.858-.76 2.012-1.09 1.154-.33 2.564-.137.94.128 1.768.437.827.308 1.465.768l-.865 1.265q-.51-.353-1.127-.642-.617-.288-1.436-.4z"/><path d="M394.228 372.837l-1.837-.251-3.096-6.616-1.346.827-.696 5.086-1.62-.222 1.742-12.73 1.62.22-.871 6.366 1.254-1.319 4.606-4.364 1.82.25-5.287 4.927z"/></g><path fill="none" stroke="#000" marker-end="url(#a)" d="M417.32 386.22L280 407.511"/><g aria-label="ACK" font-family="Droid Sans" font-size="18" font-weight="400" letter-spacing="0" word-spacing="0" style="line-height:0%;-inkscape-font-specification:'Droid Sans';text-align:start"><path d="M373.407 410.932l-1.933-3.754-4.745.649-.871 4.138-1.638.224 2.928-13.423 1.48-.203 6.434 12.143zm-2.643-5.12l-1.794-3.517q-.073-.15-.183-.365l-.215-.467q-.114-.25-.23-.519-.118-.276-.224-.537-.024.278-.064.577-.039.298-.08.578-.043.272-.09.51-.04.227-.072.382l-.757 3.865z"/><path d="M380.213 398.3q-.932.128-1.64.588-.71.452-1.16 1.188-.44.734-.607 1.724-.157.988.006 2.181.168 1.228.552 2.152.391.913.994 1.496t1.416.817q.813.235 1.84.095.775-.106 1.452-.35.675-.252 1.327-.545l.193 1.41q-.322.178-.647.329-.327.142-.693.254-.357.111-.78.196-.414.092-.927.162-1.428.195-2.538-.132-1.11-.327-1.915-1.095-.797-.77-1.294-1.935-.496-1.165-.697-2.636-.198-1.446.012-2.699.219-1.254.832-2.216.622-.963 1.645-1.591 1.023-.628 2.434-.821.94-.129 1.82-.054.88.075 1.618.347l-.494 1.451q-.586-.204-1.258-.316-.672-.112-1.49 0z"/><path d="M395.97 407.845l-1.838.252-4.758-5.541-1.075 1.158.696 5.086-1.62.221-1.742-12.73 1.62-.223.87 6.366.854-1.607 3.266-5.441 1.82-.25-3.77 6.167z"/></g><g style="line-height:0%;-inkscape-font-specification:'Droid Sans';text-align:start"><path d="M157.463 304.001c0-8.205-1.812-13.226-10.022-14.695v-.49c8.693-1.837 10.022-7.715 10.022-16.165v-20.819c0-7.225 2.052-11.511 8.452-13.226v-.245c-12.92-.612-16.18 4.654-16.18 17.757v19.717c0 7.96-1.449 11.389-9.177 12.98v.49c7.004.613 9.177 6.859 9.177 12.982v22.043c0 12.491 4.347 15.92 16.542 15.92v-.245c-7.003-1.96-8.814-5.756-8.814-13.226z" aria-label="{" font-family="ITC New Baskerville Std" font-size="121.601" font-weight="400" letter-spacing="0" word-spacing="0" style="line-height:1.25;-inkscape-font-specification:'ITC New Baskerville Std'"/></g><g aria-label="ESTABLISHED" font-family="Droid Sans" font-size="20" font-weight="400" letter-spacing="0" word-spacing="0" style="line-height:0%;-inkscape-font-specification:'Droid Sans';text-align:start"><path d="M130.347 340.297v7.412H116.07v-7.412h1.602v5.596h4.414v-5.225h1.582v5.225h5.078v-5.596z" style="line-height:1.25"/><path d="M126.529 329.643q.947 0 1.7.341.741.332 1.259.957.518.625.791 1.524.264.898.264 2.021 0 1.084-.176 2.032-.166.937-.498 1.572h-1.738q.156-.332.312-.752.147-.43.264-.899.117-.468.195-.966.068-.498.068-.987 0-1.562-.585-2.304-.586-.752-1.68-.752-.528 0-.918.146-.39.137-.713.498-.332.352-.635.947-.312.596-.674 1.504-.341.87-.742 1.514-.41.635-.918 1.055-.508.41-1.152.615-.645.195-1.465.195-.86 0-1.533-.312-.674-.313-1.133-.88-.469-.566-.713-1.347-.244-.79-.244-1.738 0-1.162.225-2.09.214-.928.556-1.65l1.524.654q-.284.635-.489 1.445-.214.801-.214 1.66 0 1.192.556 1.846.547.654 1.485.654.556 0 .966-.146.4-.146.733-.488.322-.342.615-.899.283-.566.605-1.386.352-.89.723-1.553.371-.674.84-1.123.469-.45 1.084-.674.615-.234 1.455-.234z" style="line-height:1.25"/><path d="M130.347 322.611v1.827h-12.675v4.082h-1.602v-9.98h1.602v4.071z" style="line-height:1.25"/><path d="M130.347 309.232l-4.423 1.563v5.322l4.423 1.582v1.836l-14.336-5.244v-1.66l14.336-5.254zm-6.035 2.14l-4.14 1.444q-.176.059-.43.147l-.547.166q-.293.088-.605.176-.323.088-.625.166.302.068.625.156.322.088.625.176.293.088.546.176.245.078.41.136l4.141 1.416z" style="line-height:1.25"/><path d="M116.07 305.443v-3.896q0-1.25.195-2.197.186-.957.616-1.592.42-.645 1.113-.967.683-.322 1.69-.322.605 0 1.132.195.527.186.928.547.4.361.674.898.263.528.351 1.202h.098q.117-.674.342-1.26.215-.596.605-1.035.381-.44.967-.694.586-.254 1.426-.254.976 0 1.748.323.762.312 1.299.918.527.595.81 1.455.283.86.283 1.943v4.736zm6.055-1.816v-2.383q0-.82-.147-1.377-.146-.556-.43-.898-.292-.342-.722-.489-.44-.156-1.016-.156-1.172 0-1.68.752-.507.752-.507 2.373v2.178zm1.523 0h5.156v-2.598q0-.86-.195-1.435-.195-.586-.547-.938-.351-.361-.84-.517-.498-.157-1.093-.157-.547 0-1.006.166-.46.157-.781.528-.333.361-.508.967-.186.605-.186 1.503z" style="line-height:1.25"/><path d="M130.347 293.021H116.07v-1.816h12.656v-5.596h1.621z" style="line-height:1.25"/><path d="M130.347 279.145v5.175h-.996l-.4-1.68h-11.484l-.4 1.68h-.997v-5.175h.996l.4 1.68h11.485l.4-1.68z" style="line-height:1.25"/><path d="M126.529 268.861q.947 0 1.7.342.741.332 1.259.957.518.625.791 1.524.264.898.264 2.021 0 1.084-.176 2.031-.166.938-.498 1.573h-1.738q.156-.332.312-.752.147-.43.264-.899.117-.469.195-.967.068-.498.068-.986 0-1.562-.585-2.305-.586-.752-1.68-.752-.528 0-.918.147-.39.137-.713.498-.332.352-.635.947-.312.596-.674 1.504-.341.87-.742 1.514-.41.635-.918 1.055-.508.41-1.152.615-.645.195-1.465.195-.86 0-1.533-.312-.674-.313-1.133-.88-.469-.566-.713-1.347-.244-.791-.244-1.738 0-1.162.225-2.09.214-.928.556-1.65l1.524.654q-.284.635-.489 1.445-.214.8-.214 1.66 0 1.192.556 1.846.547.654 1.485.654.556 0 .966-.146.4-.147.733-.489.322-.341.615-.898.283-.566.605-1.387.352-.888.723-1.552.371-.674.84-1.123.469-.45 1.084-.674.615-.235 1.455-.235z" style="line-height:1.25"/><path d="M130.347 255.854v1.816h-6.66v6.504h6.66v1.816H116.07v-1.816h6.016v-6.504h-6.016v-1.816z" style="line-height:1.25"/><path d="M130.347 244.555v7.412H116.07v-7.412h1.602v5.595h4.414v-5.224h1.582v5.224h5.078v-5.595z" style="line-height:1.25"/><path d="M123.072 230.902q1.807 0 3.174.47 1.357.468 2.275 1.357.908.888 1.367 2.187.46 1.29.46 2.93v3.574H116.07v-3.975q0-1.494.45-2.705.448-1.21 1.337-2.06.879-.85 2.188-1.309 1.308-.469 3.027-.469zm.059 1.924q-1.426 0-2.461.322-1.045.323-1.72.938-.673.615-.995 1.514-.332.898-.332 2.04v1.964h11.162v-1.583q0-2.578-1.426-3.886-1.426-1.309-4.228-1.309z" style="line-height:1.25"/></g><g style="line-height:0%;-inkscape-font-specification:'Droid Sans';text-align:start"><path d="M449.373 341.453c0-5.387 1.811-8.683 10.022-9.647v-.322c-8.694-1.206-10.022-5.065-10.022-10.612v-13.667c0-4.744-2.053-7.558-8.452-8.683v-.16c12.92-.403 16.18 3.054 16.18 11.656v12.944c0 5.226 1.448 7.477 9.176 8.522v.322c-7.003.401-9.177 4.502-9.177 8.521V354.8c0 8.2-4.346 10.45-16.542 10.45v-.16c7.004-1.286 8.815-3.778 8.815-8.683z" aria-label="{" font-family="ITC New Baskerville Std" font-size="98.526" font-weight="400" letter-spacing="0" word-spacing="0" style="line-height:1.25;-inkscape-font-specification:'ITC New Baskerville Std'"/></g><g aria-label="FIN-WAIT-1" font-family="Droid Sans" font-size="20" font-weight="400" letter-spacing="0" word-spacing="0" style="line-height:0%;-inkscape-font-specification:'Droid Sans';text-align:start"><path d="M477.681 338.974h-1.816v-14.278h7.412v1.602h-5.596v5.039h5.225v1.601h-5.225z" style="line-height:1.25"/><path d="M489.742 338.974h-5.176v-.996l1.68-.4v-11.485l-1.68-.4v-.997h5.176v.996l-1.68.4v11.485l1.68.4z" style="line-height:1.25"/><path d="M503.199 338.974h-2.1l-7.021-11.817H494q.058.752.097 1.494.04.635.059 1.328.03.694.03 1.25v7.745h-1.68v-14.278h2.08l6.992 11.758h.068q-.029-.742-.068-1.465-.01-.312-.03-.635-.01-.332-.029-.654l-.02-.635v-8.369h1.7z" style="line-height:1.25"/><path d="M505.933 334.433v-1.641h4.844v1.64z" style="line-height:1.25"/><path d="M519.478 324.696h1.924l2.236 8.36q.147.547.284 1.093.146.547.263 1.065.127.508.215.967.098.459.156.83.04-.371.098-.81.059-.44.137-.919.078-.488.166-.986.097-.508.205-.986l1.953-8.614h1.943l-3.584 14.278h-1.836l-2.48-9.16q-.137-.499-.264-1.026t-.234-.986q-.117-.537-.225-1.045-.107.498-.215 1.035-.097.459-.224 1.006-.117.547-.254 1.074l-2.363 9.102h-1.836l-3.77-14.278h1.924l2.178 8.682q.117.45.215.937.097.479.175.957.088.479.157.928.068.44.117.81.049-.36.117-.84.078-.478.176-1.005.097-.527.205-1.064.117-.547.244-1.026z" style="line-height:1.25"/><path d="M539.185 338.974l-1.562-4.424H532.3l-1.582 4.424h-1.835l5.244-14.336h1.66l5.254 14.336zm-2.138-6.036l-1.446-4.14q-.058-.176-.146-.43l-.166-.547q-.088-.293-.176-.605-.088-.322-.166-.625-.068.303-.156.625t-.176.625q-.088.293-.176.547-.078.244-.137.41l-1.416 4.14z" style="line-height:1.25"/><path d="M547.008 338.974h-5.176v-.996l1.68-.4v-11.485l-1.68-.4v-.997h5.176v.996l-1.68.4v11.485l1.68.4z" style="line-height:1.25"/><path d="M553.931 338.974h-1.826v-12.676h-4.082v-1.602h9.98v1.602h-4.072z" style="line-height:1.25"/><path d="M558.043 334.433v-1.641h4.843v1.64z" style="line-height:1.25"/><path d="M570.63 338.974h-1.718v-8.916-.899l.02-.947q.019-.479.029-.908.02-.44.029-.772-.166.176-.293.303-.127.127-.264.244l-.273.254-.352.303-1.445 1.181-.938-1.2 3.74-2.92h1.466z" style="line-height:1.25"/></g><g style="line-height:0%;-inkscape-font-specification:'Droid Sans';text-align:start"><path d="M449.373 418.055c0-5.962 1.811-9.61 10.022-10.678v-.356c-8.694-1.334-10.022-5.605-10.022-11.745v-15.127c0-5.25-2.053-8.364-8.452-9.61v-.178c12.92-.445 16.18 3.382 16.18 12.903v14.325c0 5.784 1.448 8.276 9.176 9.432v.356c-7.003.445-9.177 4.983-9.177 9.432v16.017c0 9.076-4.346 11.567-16.542 11.567v-.178c7.004-1.424 8.815-4.182 8.815-9.61z" aria-label="{" font-family="ITC New Baskerville Std" font-size="103.653" font-weight="400" letter-spacing="0" word-spacing="0" style="line-height:1.25;-inkscape-font-specification:'ITC New Baskerville Std'"/></g><g aria-label="TIME-WAIT" font-family="Droid Sans" font-size="20" font-weight="400" letter-spacing="0" word-spacing="0" style="line-height:0%;-inkscape-font-specification:'Droid Sans';text-align:start"><path d="M480.025 414.545H478.2v-12.676h-4.082v-1.601h9.98v1.601h-4.072z" style="line-height:1.25"/><path d="M490.289 414.545h-5.176v-.996l1.68-.4v-11.485l-1.68-.4v-.996h5.176v.996l-1.68.4v11.485l1.68.4z" style="line-height:1.25"/><path d="M498.95 414.545l-4.325-12.5h-.078q.058.723.097 1.436.04.615.059 1.298.03.674.03 1.23v8.536h-1.68v-14.277h2.695l4.023 11.64h.059l4.043-11.64h2.695v14.277h-1.816v-8.662q0-.508.02-1.162.019-.654.048-1.25.04-.694.068-1.406h-.078l-4.365 12.48z" style="line-height:1.25"/><path d="M517.886 414.545h-7.412v-14.277h7.412v1.601h-5.595v4.414h5.224v1.582h-5.224v5.078h5.595z" style="line-height:1.25"/><path d="M519.879 410.004v-1.64h4.843v1.64z" style="line-height:1.25"/><path d="M533.424 400.268h1.923l2.237 8.359q.146.547.283 1.094.146.547.264 1.064.127.508.214.967.098.459.157.83.039-.371.097-.81.059-.44.137-.918.078-.489.166-.987.098-.508.205-.986l1.953-8.613h1.944l-3.584 14.277h-1.836l-2.48-9.16q-.138-.498-.265-1.026l-.234-.986q-.117-.537-.225-1.045-.107.498-.214 1.035-.098.46-.225 1.006-.117.547-.254 1.074l-2.363 9.102h-1.836l-3.77-14.277h1.924l2.178 8.681q.117.45.215.938.097.478.176.957.087.478.156.928.068.439.117.81.049-.361.117-.84.078-.478.176-1.006.098-.527.205-1.064.117-.547.244-1.025z" style="line-height:1.25"/><path d="M553.13 414.545l-1.562-4.424h-5.322l-1.582 4.424h-1.836l5.244-14.336h1.66l5.254 14.336zm-2.138-6.035l-1.445-4.14q-.059-.177-.147-.43l-.166-.547q-.088-.293-.176-.606-.088-.322-.166-.625-.068.303-.156.625t-.176.625q-.088.293-.176.547-.078.244-.136.41l-1.416 4.14z" style="line-height:1.25"/><path d="M560.953 414.545h-5.176v-.996l1.68-.4v-11.485l-1.68-.4v-.996h5.176v.996l-1.68.4v11.485l1.68.4z" style="line-height:1.25"/><path d="M567.877 414.545h-1.827v-12.676h-4.082v-1.601h9.98v1.601h-4.071z" style="line-height:1.25"/></g><g style="line-height:0%;-inkscape-font-specification:'Droid Sans';text-align:start"><path d="M157.463 498.893c0-19.192-1.812-30.936-10.022-34.373v-1.146c8.693-4.296 10.022-18.045 10.022-37.81V376.87c0-16.9 2.052-26.926 8.452-30.936v-.573c-12.92-1.432-16.18 10.885-16.18 41.534v46.117c0 18.618-1.449 26.639-9.177 30.362v1.146c7.004 1.432 9.177 16.04 9.177 30.363v51.559c0 29.216 4.347 37.237 16.542 37.237v-.573c-7.003-4.583-8.814-13.463-8.814-30.936z" aria-label="{" font-family="ITC New Baskerville Std" font-size="185.974" font-weight="400" letter-spacing="0" word-spacing="0" style="line-height:1.25;-inkscape-font-specification:'ITC New Baskerville Std'"/></g><g aria-label="LAST-ACK" font-family="Droid Sans" font-size="20" font-weight="400" letter-spacing="0" word-spacing="0" style="line-height:0%;-inkscape-font-specification:'Droid Sans';text-align:start"><path d="M48.638 471.664v-14.278h1.817v12.657h5.595v1.62z" style="line-height:1.25"/><path d="M66.842 471.664l-1.563-4.424h-5.322l-1.582 4.424h-1.836l5.244-14.336h1.66l5.254 14.336zm-2.14-6.036l-1.444-4.14-.147-.43-.166-.547q-.088-.293-.176-.605-.088-.322-.166-.625-.068.303-.156.625t-.176.625q-.088.293-.176.547-.078.244-.136.41l-1.416 4.14z" style="line-height:1.25"/><path d="M78.15 467.845q0 .948-.342 1.7-.332.742-.957 1.26-.625.517-1.523.79-.899.264-2.022.264-1.084 0-2.03-.176-.938-.166-1.573-.498v-1.738q.332.156.752.312.43.147.898.264.469.117.967.195.498.069.986.069 1.563 0 2.305-.586.752-.586.752-1.68 0-.527-.146-.918-.137-.39-.499-.713-.351-.332-.947-.635-.596-.312-1.504-.673-.869-.342-1.513-.743-.635-.41-1.055-.918-.41-.507-.615-1.152-.196-.644-.196-1.465 0-.86.313-1.533.312-.674.879-1.133.566-.468 1.347-.713.791-.244 1.739-.244 1.162 0 2.09.225.927.215 1.65.556l-.654 1.524q-.635-.283-1.446-.488-.8-.215-1.66-.215-1.191 0-1.846.556-.654.547-.654 1.485 0 .556.147.967.146.4.488.732.342.322.898.615.567.283 1.387.606.889.351 1.553.722.674.371 1.123.84.45.469.674 1.084.234.615.234 1.455z" style="line-height:1.25"/><path d="M85.181 471.664h-1.826v-12.676h-4.082v-1.602h9.98v1.602h-4.072z" style="line-height:1.25"/><path d="M89.293 467.123v-1.641h4.843v1.64z" style="line-height:1.25"/><path d="M105.24 471.664l-1.563-4.424h-5.322l-1.582 4.424h-1.836l5.244-14.336h1.66l5.254 14.336zm-2.139-6.036l-1.445-4.14q-.059-.176-.147-.43l-.166-.547q-.087-.293-.175-.605-.088-.322-.166-.625-.069.303-.157.625-.087.322-.175.625-.088.293-.176.547-.078.244-.137.41l-1.416 4.14z" style="line-height:1.25"/><path d="M114.634 458.783q-1.044 0-1.894.4-.85.39-1.455 1.133-.596.742-.928 1.807-.322 1.064-.322 2.402 0 1.377.283 2.451.293 1.065.87 1.797.575.732 1.435 1.113.86.381 2.011.381.87 0 1.65-.166.782-.176 1.544-.4v1.582q-.381.146-.762.263-.38.108-.8.176-.41.069-.89.098-.468.039-1.044.039-1.602 0-2.774-.527-1.172-.528-1.943-1.494-.762-.967-1.133-2.325-.371-1.357-.371-3.007 0-1.622.42-2.97.43-1.347 1.25-2.314.83-.966 2.05-1.504 1.221-.537 2.803-.537 1.055 0 2.012.215.957.215 1.729.625l-.762 1.524q-.615-.313-1.338-.538-.723-.224-1.64-.224z" style="line-height:1.25"/><path d="M130.543 471.664h-2.06l-4.405-6.817-1.358 1.114v5.703h-1.816v-14.278h1.816v7.139l1.182-1.64 4.414-5.499h2.041l-5.078 6.221z" style="line-height:1.25"/></g><path id="b" fill="none" stroke="#000" marker-end="url(#a)" d="M417.32 478.22L188.57 509.511"/><path fill="none" stroke="#000" marker-end="url(#a)" d="M188.571 514.22l228.748 31.292"/><g style="line-height:0%;-inkscape-font-specification:'Droid Sans';text-align:start" id="c" aria-label="SYN" font-family="Droid Sans" font-size="18" font-weight="400" letter-spacing="0" word-spacing="0"><path d="M409.347 316.778q-.115-.844.098-1.556.205-.703.7-1.24.493-.538 1.261-.892.77-.344 1.77-.481.967-.133 1.833-.091.857.033 1.463.252l.212 1.55q-.315-.099-.709-.187-.4-.078-.833-.125-.432-.048-.886-.057-.452 0-.888.06-1.393.19-1.983.803-.6.615-.466 1.59.065.47.243.8.17.332.53.575.355.254.923.45.57.207 1.423.418.817.2 1.44.477.617.289 1.053.69.428.403.69.953.252.55.352 1.282.105.767-.092 1.405-.196.64-.645 1.118-.448.487-1.115.8-.676.314-1.52.43-1.036.141-1.891.054-.854-.078-1.54-.295l.398-1.438q.6.175 1.348.26.74.093 1.507-.012 1.062-.145 1.578-.721.516-.568.402-1.404-.068-.496-.248-.844-.18-.34-.525-.593-.344-.246-.876-.44-.54-.183-1.31-.37-.836-.205-1.473-.455-.647-.249-1.104-.612-.458-.363-.733-.884-.284-.52-.387-1.27z" transform="rotate(180 391.676 396.918)"/><path d="M404.222 320.425l-2.08 6.84-1.742.238 2.82-8.307-.678-4.955 1.628-.223.666 4.868 4.96 7.332-1.768.242z" transform="rotate(180 391.676 396.918)"/><path d="M387.381 316.315l1.873-.256 7.702 9.68.07-.01q-.144-.664-.27-1.32-.112-.562-.214-1.178-.11-.614-.178-1.11l-.945-6.906 1.498-.205 1.741 12.731-1.855.254-7.669-9.632-.06.008q.116.659.239 1.298.047.278.104.563.049.294.105.58l.095.563.068.496.953 6.967-1.515.207z" transform="rotate(180 391.676 396.918)"/></g><g aria-label="FIN,ACK" font-family="Droid Sans" font-size="18" font-weight="400" letter-spacing="0" word-spacing="0" style="line-height:0%;-inkscape-font-specification:'Droid Sans';text-align:start"><path d="M333.542 530.535l-1.62-.221 1.742-12.732 6.61.905-.196 1.428-4.99-.683-.614 4.493 4.659.638-.196 1.428-4.659-.637z"/><path d="M344.297 532.006l-4.616-.631.122-.888 1.547-.152 1.4-10.241-1.449-.562.122-.888 4.615.631-.121.888-1.547.153-1.4 10.24 1.448.562z"/><path d="M356.296 533.648l-1.872-.256-4.82-11.393-.07-.01q-.039.677-.095 1.344-.042.57-.11 1.191-.058.622-.126 1.118l-.944 6.906-1.498-.205 1.742-12.731 1.854.254 4.8 11.337.062.008q.064-.665.118-1.315.03-.28.051-.57.032-.296.054-.586l.06-.569.068-.496.953-6.966 1.515.207z"/><path d="M361.456 532.242l.103.219q-.186.453-.433.96-.238.51-.52 1.02-.275.513-.574 1.013-.291.51-.576.968l-1.202-.164q.204-.514.404-1.072.21-.557.401-1.116.2-.55.37-1.076.17-.535.303-.987z"/><path d="M371.666 535.75l-.854-4.135-4.746-.65-1.95 3.753-1.637-.224 6.425-12.144 1.48.203 2.936 13.424zm-1.171-5.642l-.784-3.868q-.03-.164-.078-.401-.039-.236-.081-.508-.043-.272-.083-.562-.04-.298-.072-.577-.098.261-.216.538-.117.277-.233.536-.114.25-.223.466-.1.208-.172.35l-1.768 3.519z"/><path d="M381.614 525.41q-.932-.127-1.738.127-.805.244-1.436.832-.622.59-1.047 1.498-.418.91-.58 2.103-.169 1.228-.047 2.22.131.985.555 1.708.425.724 1.145 1.168.72.445 1.747.585.775.106 1.492.053.718-.061 1.425-.168l-.193 1.41q-.358.085-.712.143-.352.049-.735.059-.374.01-.804-.022-.423-.022-.937-.092-1.428-.196-2.409-.809-.98-.613-1.55-1.57-.562-.954-.727-2.21-.165-1.256.036-2.727.198-1.446.737-2.596.547-1.15 1.397-1.912.858-.76 2.012-1.09 1.154-.33 2.564-.137.94.128 1.768.437.827.308 1.465.768l-.865 1.265q-.51-.353-1.127-.642-.617-.288-1.436-.4z"/><path d="M394.228 538.837l-1.837-.251-3.096-6.616-1.346.827-.696 5.086-1.62-.222 1.742-12.73 1.62.22-.871 6.366 1.254-1.319 4.606-4.364 1.82.25-5.287 4.927z"/></g><g aria-label="(shortened)" font-family="Droid Sans" font-size="14" font-weight="400" letter-spacing="0" word-spacing="0" style="line-height:0%;-inkscape-font-specification:'Droid Sans';text-align:start"><path d="M487.154 424.71q0-.854.124-1.682.123-.834.375-1.613.253-.786.636-1.504.39-.724.923-1.36h1.176q-.957 1.32-1.456 2.898-.492 1.58-.492 3.247 0 .814.123 1.62.13.807.369 1.58.246.772.608 1.497.363.724.834 1.367h-1.162q-.533-.615-.923-1.32-.383-.704-.636-1.47-.252-.772-.375-1.592-.124-.82-.124-1.668z" style="line-height:1.25"/><path d="M496.486 426.487q0 .547-.199.957-.198.41-.574.69-.37.274-.895.411-.527.137-1.183.137-.745 0-1.278-.123-.534-.117-.937-.349v-1.135q.212.11.472.22.26.102.547.184.287.082.588.136.307.048.608.048.444 0 .752-.075.314-.075.506-.212.198-.144.287-.342.089-.205.089-.45 0-.213-.069-.384-.068-.17-.253-.335-.177-.17-.492-.341-.314-.171-.806-.383-.493-.212-.89-.417-.389-.205-.662-.458-.274-.253-.424-.581-.144-.335-.144-.793 0-.479.185-.848.191-.376.533-.629t.82-.383q.48-.13 1.067-.13.663 0 1.21.144.554.144 1.046.376l-.43 1.005q-.445-.198-.917-.342-.465-.15-.95-.15-.697 0-1.032.232-.335.226-.335.65 0 .239.075.416.082.178.273.335.192.158.513.322.321.157.8.355.492.205.875.41.39.205.663.465.273.253.417.581.144.328.144.786z" style="line-height:1.25"/><path d="M503 428.545v-4.833q0-.889-.362-1.333-.356-.444-1.121-.444-.554 0-.93.177-.376.178-.608.527-.226.348-.328.854-.096.506-.096 1.162v3.89h-1.244v-10.637h1.244v3.159l-.055.984h.069q.17-.294.403-.506.24-.219.52-.362.28-.144.594-.212.315-.069.643-.069 1.25 0 1.88.657.635.65.635 2.085v4.901z" style="line-height:1.25"/><path d="M512.687 424.778q0 .937-.233 1.668-.225.725-.656 1.224-.424.492-1.032.752-.609.26-1.367.26-.704 0-1.3-.26-.594-.26-1.031-.752-.431-.499-.677-1.224-.24-.731-.24-1.668 0-.93.226-1.647.233-.725.656-1.217.424-.499 1.033-.752.615-.26 1.374-.26.704 0 1.298.26.595.253 1.026.752.437.492.677 1.217.246.718.246 1.647zm-5.25 0q0 1.43.465 2.154.471.718 1.524.718t1.51-.718q.466-.725.466-2.154 0-1.428-.472-2.132-.465-.711-1.518-.711-1.052 0-1.517.71-.458.705-.458 2.133z" style="line-height:1.25"/><path d="M517.91 420.902q.198 0 .444.021.246.014.424.048l-.165 1.148q-.19-.034-.396-.054-.198-.028-.376-.028-.43 0-.786.178-.356.17-.615.5-.253.32-.397.778-.137.452-.137 1.005v4.047h-1.244v-7.506h1.012l.15 1.374h.055q.171-.294.362-.567.199-.274.438-.479.246-.212.547-.335.3-.13.683-.13z" style="line-height:1.25"/><path d="M522.51 427.663q.123 0 .273-.013.158-.014.301-.035.144-.02.26-.048.123-.027.185-.047v.943q-.09.041-.226.082-.137.041-.3.068-.165.035-.343.048-.177.02-.348.02-.424 0-.786-.109-.363-.11-.63-.376-.26-.266-.41-.717-.15-.458-.15-1.149v-4.354h-1.06v-.554l1.06-.533.533-1.572h.718v1.722h1.887v.937h-1.887v4.354q0 .663.212.998.219.335.71.335z" style="line-height:1.25"/><path d="M527.965 428.682q-.752 0-1.374-.253-.622-.253-1.073-.738-.445-.486-.69-1.204-.247-.717-.247-1.64 0-.93.226-1.661.225-.732.636-1.238.41-.512.977-.779.574-.267 1.265-.267.677 0 1.217.247.54.239.916.683.376.438.574 1.06.205.615.205 1.367v.772h-4.73q.034 1.32.553 1.942.526.622 1.559.622.348 0 .642-.034.301-.035.574-.096.28-.068.54-.164.26-.103.527-.226v1.108q-.274.13-.54.225-.26.096-.54.158-.274.061-.574.088-.294.028-.643.028zm-.308-6.747q-.779 0-1.237.533-.451.533-.526 1.552h3.363q0-.465-.096-.848-.089-.39-.287-.663-.191-.274-.492-.424-.3-.15-.725-.15z" style="line-height:1.25"/><path d="M537.18 428.545v-4.833q0-.889-.362-1.333-.356-.444-1.122-.444-.553 0-.93.177-.375.178-.608.527-.225.348-.328.854-.095.506-.095 1.162v3.89h-1.245v-7.506h1.012l.178 1.012h.068q.171-.294.404-.506.239-.219.52-.362.28-.144.594-.212.314-.069.642-.069 1.251 0 1.88.657.636.65.636 2.085v4.901z" style="line-height:1.25"/><path d="M543.715 428.682q-.752 0-1.374-.253-.622-.253-1.073-.738-.445-.486-.69-1.204-.247-.717-.247-1.64 0-.93.226-1.661.225-.732.636-1.238.41-.512.977-.779.574-.267 1.265-.267.677 0 1.217.247.54.239.916.683.376.438.574 1.06.205.615.205 1.367v.772h-4.73q.034 1.32.553 1.942.526.622 1.559.622.348 0 .642-.034.301-.035.574-.096.28-.068.54-.164.26-.103.527-.226v1.108q-.274.13-.54.225-.26.096-.54.158-.274.061-.574.088-.294.028-.643.028zm-.308-6.747q-.779 0-1.237.533-.451.533-.526 1.552h3.363q0-.465-.096-.848-.089-.39-.287-.663-.191-.274-.492-.424-.3-.15-.725-.15z" style="line-height:1.25"/><path d="M552.875 427.54h-.055q-.15.233-.355.444-.198.206-.465.363-.26.157-.588.246-.328.089-.738.089-.636 0-1.162-.246-.526-.246-.902-.732-.376-.492-.582-1.217-.205-.724-.205-1.681 0-.964.205-1.689.206-.731.582-1.223.376-.492.902-.739.526-.252 1.162-.252.403 0 .731.088.329.09.588.24.267.15.472.348.205.199.355.417h.082l-.04-.444-.028-.362q-.014-.192-.014-.301v-2.98h1.245v10.636h-1.005zm-1.962.11q.52 0 .875-.158.363-.157.581-.478.226-.322.328-.8.11-.485.124-1.128v-.28q0-.69-.096-1.224-.09-.54-.315-.902-.218-.37-.588-.554-.369-.191-.922-.191-.923 0-1.36.745-.431.745-.431 2.14 0 1.428.43 2.132.438.698 1.374.698z" style="line-height:1.25"/><path d="M558.911 424.71q0 .848-.123 1.668t-.383 1.593q-.252.765-.642 1.47-.383.704-.916 1.319h-1.162q.471-.643.834-1.367.362-.725.608-1.497.246-.773.37-1.58.122-.806.122-1.62 0-1.668-.492-3.247t-1.456-2.898h1.176q.533.636.916 1.36.39.718.642 1.504.26.78.383 1.613.123.828.123 1.682z" style="line-height:1.25"/></g><path fill="none" stroke="#000" stroke-dasharray="3 3" d="M327.59 452.648h254.106"/><g fill="none" stroke="#c90000" stroke-linecap="round" stroke-width="10"><path stroke-width="4.011" d="M280.669 395.54l-19.552 23.001"/><path stroke-width="4.011" d="M259.393 397.265l23 19.552"/></g><g style="line-height:0%;-inkscape-font-specification:'Droid Sans';text-align:start"><path d="M449.373 576.83c0-12.576 1.811-20.272 10.022-22.525v-.75c-8.694-2.816-10.022-11.826-10.022-24.778v-31.91c0-11.076-2.053-17.645-8.452-20.273v-.376c12.92-.938 16.18 7.133 16.18 27.218v30.221c0 12.202 1.448 17.457 9.176 19.898v.75c-7.003.939-9.177 10.512-9.177 19.898v33.787c0 19.147-4.346 24.403-16.542 24.403v-.376c7.004-3.003 8.815-8.822 8.815-20.272z" aria-label="{" font-family="ITC New Baskerville Std" font-size="150.549" font-weight="400" letter-spacing="0" word-spacing="0" style="line-height:1.25;-inkscape-font-specification:'ITC New Baskerville Std'"/></g><g aria-label="SYN-SENT" font-family="Droid Sans" font-size="20" font-weight="400" letter-spacing="0" word-spacing="0" style="line-height:0%;-inkscape-font-specification:'Droid Sans';text-align:start"><path d="M483.384 557.63q0 .948-.341 1.7-.332.742-.957 1.26-.625.517-1.524.79-.898.264-2.021.264-1.084 0-2.032-.175-.937-.166-1.572-.498v-1.739q.332.156.752.313.43.146.899.263.468.118.966.196.498.068.987.068 1.562 0 2.304-.586.752-.586.752-1.68 0-.527-.146-.917-.137-.391-.498-.713-.352-.332-.947-.635-.596-.313-1.504-.674-.87-.342-1.514-.742-.635-.41-1.055-.918-.41-.508-.615-1.152-.195-.645-.195-1.465 0-.86.312-1.533.313-.674.88-1.133.566-.47 1.347-.713.79-.244 1.738-.244 1.162 0 2.09.224.928.215 1.65.557l-.654 1.523q-.635-.283-1.445-.488-.801-.215-1.66-.215-1.192 0-1.846.557-.654.547-.654 1.484 0 .557.146.967.147.4.488.732.342.323.899.616.566.283 1.386.605.89.352 1.553.723.674.37 1.123.84.45.468.674 1.084.234.615.234 1.455z" style="line-height:1.25"/><path d="M489.576 554.388l3.32-7.216h1.953l-4.355 8.72v5.557h-1.826v-5.459l-4.356-8.818h1.983z" style="line-height:1.25"/><path d="M507.496 561.449h-2.1l-7.021-11.816h-.078q.058.752.097 1.494.04.635.059 1.328.03.693.03 1.25v7.744h-1.68v-14.277h2.08l6.992 11.757h.068q-.03-.742-.068-1.464-.01-.313-.03-.635-.01-.332-.029-.654l-.02-.635v-8.369h1.7z" style="line-height:1.25"/><path d="M510.23 556.908v-1.64h4.844v1.64z" style="line-height:1.25"/><path d="M525.338 557.63q0 .948-.342 1.7-.332.742-.957 1.26-.625.517-1.524.79-.898.264-2.021.264-1.084 0-2.031-.175-.938-.166-1.573-.498v-1.739q.332.156.752.313.43.146.899.263.468.118.967.196.498.068.986.068 1.562 0 2.305-.586.751-.586.751-1.68 0-.527-.146-.917-.137-.391-.498-.713-.352-.332-.947-.635-.596-.313-1.504-.674-.87-.342-1.514-.742-.635-.41-1.055-.918-.41-.508-.615-1.152-.195-.645-.195-1.465 0-.86.312-1.533.313-.674.88-1.133.566-.47 1.347-.713.79-.244 1.738-.244 1.162 0 2.09.224.928.215 1.65.557l-.654 1.523q-.635-.283-1.445-.488-.801-.215-1.66-.215-1.192 0-1.846.557-.654.547-.654 1.484 0 .557.146.967.147.4.488.732.342.323.899.616.566.283 1.387.605.888.352 1.552.723.674.37 1.123.84.45.468.674 1.084.235.615.235 1.455z" style="line-height:1.25"/><path d="M535.62 561.449h-7.411v-14.277h7.412v1.601h-5.596v4.414h5.225v1.582h-5.225v5.078h5.596z" style="line-height:1.25"/><path d="M549.449 561.449h-2.1l-7.021-11.816h-.078q.058.752.097 1.494.04.635.059 1.328.03.693.03 1.25v7.744h-1.68v-14.277h2.08l6.992 11.757h.068q-.029-.742-.068-1.464-.01-.313-.03-.635-.01-.332-.029-.654l-.02-.635v-8.369h1.7z" style="line-height:1.25"/><path d="M557.486 561.449h-1.826v-12.676h-4.082v-1.601h9.98v1.601h-4.072z" style="line-height:1.25"/></g><path fill="none" stroke="#000" marker-end="url(#a)" d="M417.32 550.22L188.57 581.511"/><g aria-label="RST" font-family="Droid Sans" font-size="18" font-weight="400" letter-spacing="0" word-spacing="0" style="line-height:0%;-inkscape-font-specification:'Droid Sans';text-align:start"><path d="M213.264 569.185l.72 5.26-1.62.22-1.742-12.73 3.1-.424q2.316-.317 3.545.428 1.228.746 1.477 2.566.104.758-.036 1.353-.132.595-.433 1.053-.293.448-.71.78-.415.332-.87.572l4.246 5.23-1.907.26-3.776-4.841zm-.189-1.376l1.428-.196q.784-.107 1.313-.33.527-.232.835-.575.315-.354.41-.82.104-.475.022-1.076-.086-.627-.328-1.037-.234-.412-.638-.64-.395-.23-.969-.276-.566-.055-1.324.048l-1.393.19z"/><path d="M229.122 568.905q.116.844-.098 1.557-.205.702-.7 1.24-.493.537-1.261.89-.77.346-1.77.483-.967.132-1.833.09-.856-.033-1.463-.252l-.212-1.55q.315.099.709.187.4.078.833.126.432.047.886.056.452 0 .888-.06 1.393-.19 1.983-.803.6-.614.466-1.59-.064-.47-.243-.8-.17-.332-.53-.575-.355-.253-.923-.45-.57-.207-1.423-.418-.817-.199-1.44-.477-.616-.289-1.053-.69-.428-.403-.689-.953-.253-.55-.353-1.282-.105-.766.092-1.405.196-.64.645-1.118.448-.487 1.115-.8.676-.314 1.52-.43 1.037-.141 1.891-.054.854.078 1.54.295l-.398 1.438q-.6-.175-1.348-.259-.74-.094-1.507.011-1.062.145-1.578.721-.516.568-.402 1.404.068.496.248.844.18.34.525.594.344.245.876.439.54.183 1.31.37.836.205 1.474.455.646.25 1.103.612.458.363.733.885.285.52.387 1.269z"/><path d="M235.857 571.452l-1.628.223-1.546-11.303-3.64.498-.195-1.428 8.9-1.218.194 1.428-3.63.497z"/></g><use width="543.558" height="365.286" transform="translate(0 112)" xlink:href="#b"/><use width="543.558" height="365.286" transform="translate(0 112)" xlink:href="#c"/><path fill="none" stroke="#000" marker-end="url(#a)" d="M188.571 628.22l228.748 31.292"/><g aria-label="SYN,ACK" font-family="Droid Sans" font-size="18" font-weight="400" letter-spacing="0" word-spacing="0" style="line-height:0%;-inkscape-font-specification:'Droid Sans';text-align:start"><path d="M339.094 641.826q-.116.845-.513 1.473-.386.622-1.007 1.007-.62.385-1.455.52-.833.125-1.834-.012-.967-.132-1.79-.404-.816-.263-1.341-.636l.212-1.55q.277.18.632.37.365.183.77.345.403.161.837.292.436.121.872.181 1.393.19 2.126-.241.742-.431.876-1.406.064-.47-.02-.837-.073-.365-.356-.696-.273-.34-.767-.682-.494-.351-1.26-.784-.733-.41-1.259-.846-.515-.444-.828-.948-.304-.503-.408-1.102-.096-.599.005-1.33.105-.767.466-1.33.36-.562.922-.902.562-.35 1.288-.472.735-.12 1.58-.006 1.036.142 1.836.456.801.304 1.404.697l-.77 1.279q-.53-.33-1.229-.612-.687-.289-1.454-.394-1.062-.145-1.713.271-.65.408-.765 1.244-.068.497.013.88.082.375.346.713.265.329.726.658.47.322 1.163.709.75.422 1.296.834.556.413.899.886.343.473.469 1.049.133.577.031 1.326z"/><path d="M345.01 639.69l3.84-6.03 1.742.238-4.947 7.245-.678 4.955-1.628-.223.666-4.867-2.808-8.395 1.767.242z"/><path d="M360.128 648.172l-1.873-.256-4.82-11.393-.069-.01q-.04.677-.095 1.344-.043.57-.11 1.191-.058.622-.126 1.119l-.945 6.905-1.498-.205 1.742-12.73 1.855.253 4.8 11.337.061.008q.065-.665.118-1.314.03-.28.052-.57.031-.297.053-.587l.06-.568.068-.497.953-6.966 1.515.207z"/><path d="M365.288 646.767l.103.218q-.186.453-.433.96-.238.51-.521 1.02-.274.513-.573 1.013-.292.51-.576.968l-1.202-.164q.203-.514.404-1.072.209-.556.4-1.116.2-.549.37-1.076.17-.535.303-.987z"/><path d="M375.497 650.275l-.853-4.136-4.746-.649-1.95 3.752-1.638-.224 6.425-12.144 1.48.203 2.937 13.424zm-1.17-5.643l-.784-3.868-.078-.401q-.04-.236-.082-.508t-.083-.562q-.039-.298-.071-.577-.098.261-.216.538t-.233.536q-.114.25-.223.466-.1.208-.172.35l-1.768 3.519z"/><path d="M385.446 639.935q-.932-.128-1.739.126-.805.244-1.435.832-.622.59-1.048 1.498-.417.91-.58 2.103-.168 1.228-.047 2.22.132.985.556 1.708.424.724 1.144 1.168.72.445 1.748.585.775.106 1.492.054.718-.062 1.424-.17l-.193 1.411q-.357.085-.711.143-.353.049-.736.059-.374.01-.804-.022-.423-.022-.937-.092-1.428-.195-2.408-.809-.98-.613-1.55-1.569-.562-.955-.727-2.21-.166-1.256.036-2.728.197-1.446.736-2.596.548-1.15 1.397-1.911.858-.761 2.012-1.091 1.154-.33 2.565-.137.94.128 1.768.437.827.308 1.465.768l-.865 1.265q-.51-.353-1.128-.642-.617-.288-1.435-.4z"/><path d="M398.06 653.361l-1.838-.251-3.096-6.616-1.346.827-.696 5.086-1.62-.222 1.742-12.73 1.62.22-.87 6.366 1.253-1.318 4.607-4.365 1.82.25-5.287 4.927z"/></g><path fill="none" stroke="#000" stroke-dasharray="3 3" d="M75.447 596.934h185.535"/><g style="line-height:0%;-inkscape-font-specification:'Droid Sans';text-align:start"><path d="M157.463 670.338c0-6.997-1.812-11.28-10.022-12.532v-.418c8.693-1.567 10.022-6.58 10.022-13.785v-17.754c0-6.162 2.052-9.817 8.452-11.279v-.209c-12.92-.522-16.18 3.969-16.18 15.143v16.814c0 6.788-1.449 9.712-9.177 11.07v.418c7.004.522 9.177 5.848 9.177 11.07v18.798c0 10.652 4.347 13.576 16.542 13.576v-.209c-7.003-1.67-8.814-4.908-8.814-11.279z" aria-label="{" font-family="ITC New Baskerville Std" font-size="112.294" font-weight="400" letter-spacing="0" word-spacing="0" style="line-height:1.25;-inkscape-font-specification:'ITC New Baskerville Std'"/></g><g aria-label="ESTABLISHED" font-family="Droid Sans" font-size="20" font-weight="400" letter-spacing="0" word-spacing="0" style="line-height:0%;-inkscape-font-specification:'Droid Sans';text-align:start"><path d="M130.347 708.797v7.412H116.07v-7.412h1.602v5.596h4.414v-5.225h1.582v5.225h5.078v-5.596z" style="line-height:1.25"/><path d="M126.529 698.143q.947 0 1.7.341.741.332 1.259.957.518.625.791 1.524.264.898.264 2.021 0 1.084-.176 2.032-.166.937-.498 1.572h-1.738q.156-.332.312-.752.147-.43.264-.898.117-.47.195-.967.068-.498.068-.987 0-1.562-.585-2.304-.586-.752-1.68-.752-.528 0-.918.146-.39.137-.713.498-.332.352-.635.948-.312.595-.674 1.503-.341.87-.742 1.514-.41.635-.918 1.055-.508.41-1.152.615-.645.195-1.465.195-.86 0-1.533-.312-.674-.313-1.133-.879-.469-.566-.713-1.348-.244-.79-.244-1.738 0-1.162.225-2.09.214-.928.556-1.65l1.524.654q-.284.635-.489 1.445-.214.801-.214 1.66 0 1.192.556 1.846.547.655 1.485.655.556 0 .966-.147.4-.146.733-.488.322-.342.615-.899.283-.566.605-1.386.352-.889.723-1.553.371-.674.84-1.123.469-.45 1.084-.674.615-.234 1.455-.234z" style="line-height:1.25"/><path d="M130.347 691.111v1.827h-12.675v4.082h-1.602v-9.98h1.602v4.071z" style="line-height:1.25"/><path d="M130.347 677.732l-4.423 1.563v5.322l4.423 1.582v1.836l-14.336-5.244v-1.66l14.336-5.254zm-6.035 2.14l-4.14 1.444-.43.147-.547.166q-.293.088-.605.176-.323.088-.625.166.302.068.625.156.322.088.625.176.293.088.546.176.245.078.41.136l4.141 1.416z" style="line-height:1.25"/><path d="M116.07 673.943v-3.896q0-1.25.195-2.197.186-.957.616-1.592.42-.645 1.113-.967.683-.322 1.69-.322.605 0 1.132.195.527.186.928.547.4.361.674.898.263.528.351 1.202h.098q.117-.674.342-1.26.215-.596.605-1.035.381-.44.967-.694.586-.254 1.426-.254.976 0 1.748.323.762.312 1.299.918.527.595.81 1.455.283.86.283 1.943v4.736zm6.055-1.816v-2.383q0-.82-.147-1.377-.146-.556-.43-.898-.292-.342-.722-.488-.44-.157-1.016-.157-1.172 0-1.68.752-.507.752-.507 2.373v2.178zm1.523 0h5.156v-2.598q0-.859-.195-1.435-.195-.586-.547-.938-.351-.361-.84-.517-.498-.157-1.093-.157-.547 0-1.006.166-.46.157-.781.528-.333.361-.508.967-.186.605-.186 1.504z" style="line-height:1.25"/><path d="M130.347 661.522H116.07v-1.817h12.656v-5.596h1.621z" style="line-height:1.25"/><path d="M130.347 647.645v5.175h-.996l-.4-1.68h-11.484l-.4 1.68h-.997v-5.175h.996l.4 1.68h11.485l.4-1.68z" style="line-height:1.25"/><path d="M126.529 637.361q.947 0 1.7.342.741.332 1.259.957.518.625.791 1.524.264.898.264 2.021 0 1.084-.176 2.031-.166.938-.498 1.573h-1.738q.156-.332.312-.752.147-.43.264-.899.117-.468.195-.967.068-.498.068-.986 0-1.562-.585-2.305-.586-.751-1.68-.751-.528 0-.918.146-.39.137-.713.498-.332.352-.635.947-.312.596-.674 1.504-.341.87-.742 1.514-.41.635-.918 1.055-.508.41-1.152.615-.645.195-1.465.195-.86 0-1.533-.312-.674-.313-1.133-.88-.469-.566-.713-1.347-.244-.791-.244-1.738 0-1.162.225-2.09.214-.928.556-1.65l1.524.654q-.284.635-.489 1.445-.214.8-.214 1.66 0 1.192.556 1.846.547.654 1.485.654.556 0 .966-.146.4-.147.733-.488.322-.342.615-.899.283-.566.605-1.387.352-.888.723-1.552.371-.674.84-1.123.469-.45 1.084-.674.615-.235 1.455-.235z" style="line-height:1.25"/><path d="M130.347 624.354v1.816h-6.66v6.504h6.66v1.816H116.07v-1.816h6.016v-6.504h-6.016v-1.816z" style="line-height:1.25"/><path d="M130.347 613.055v7.412H116.07v-7.412h1.602v5.595h4.414v-5.224h1.582v5.224h5.078v-5.595z" style="line-height:1.25"/><path d="M123.072 599.402q1.807 0 3.174.47 1.357.468 2.275 1.357.908.888 1.367 2.187.46 1.29.46 2.93v3.574H116.07v-3.975q0-1.494.45-2.705.448-1.21 1.337-2.06.879-.85 2.188-1.309 1.308-.469 3.027-.469zm.059 1.924q-1.426 0-2.461.322-1.045.323-1.72.938-.673.615-.995 1.514-.332.898-.332 2.04v1.964h11.162v-1.582q0-2.579-1.426-3.887-1.426-1.309-4.228-1.309z" style="line-height:1.25"/></g><g style="line-height:0%;-inkscape-font-specification:'Droid Sans';text-align:start"><path d="M449.373 686.055c0-5.962 1.811-9.61 10.022-10.678v-.356c-8.694-1.335-10.022-5.606-10.022-11.745v-15.127c0-5.25-2.053-8.364-8.452-9.61v-.178c12.92-.445 16.18 3.381 16.18 12.902v14.326c0 5.784 1.448 8.275 9.176 9.432v.356c-7.003.445-9.177 4.983-9.177 9.432v16.016c0 9.076-4.346 11.568-16.542 11.568v-.178c7.004-1.424 8.815-4.182 8.815-9.61z" aria-label="{" font-family="ITC New Baskerville Std" font-size="103.653" font-weight="400" letter-spacing="0" word-spacing="0" style="line-height:1.25;-inkscape-font-specification:'ITC New Baskerville Std'"/></g><g aria-label="ESTABLISHED" font-family="Droid Sans" font-size="20" font-weight="400" letter-spacing="0" word-spacing="0" style="line-height:0%;-inkscape-font-specification:'Droid Sans';text-align:start"><path d="M489.42 726.368v7.412h-14.278v-7.412h1.602v5.596h4.414v-5.225h1.582v5.225h5.078v-5.596z" style="line-height:1.25"/><path d="M485.601 715.714q.948 0 1.7.342.742.332 1.26.957.517.625.79 1.523.264.899.264 2.022 0 1.084-.176 2.03-.166.938-.498 1.573h-1.738q.156-.332.312-.752.147-.43.264-.898.117-.469.195-.967.069-.498.069-.986 0-1.563-.586-2.305-.586-.752-1.68-.752-.527 0-.918.147-.39.136-.713.498-.332.351-.635.947-.312.596-.673 1.504-.342.869-.743 1.513-.41.635-.918 1.055-.507.41-1.152.615-.644.196-1.465.196-.86 0-1.533-.313-.674-.312-1.133-.879-.468-.566-.713-1.347-.244-.791-.244-1.739 0-1.162.225-2.09.215-.927.556-1.65l1.524.654q-.283.635-.488 1.446-.215.8-.215 1.66 0 1.191.556 1.846.547.654 1.485.654.556 0 .967-.147.4-.146.732-.488.322-.342.615-.898.283-.567.606-1.387.351-.889.722-1.553.371-.674.84-1.123.469-.45 1.084-.674.615-.234 1.455-.234z" style="line-height:1.25"/><path d="M489.42 708.683v1.826h-12.676v4.082h-1.602v-9.98h1.602v4.072z" style="line-height:1.25"/><path d="M489.42 695.304l-4.424 1.562v5.323l4.424 1.582v1.836l-14.336-5.245v-1.66l14.336-5.254zm-6.036 2.138l-4.14 1.446q-.176.058-.43.146l-.547.166q-.293.088-.605.176-.322.088-.625.166.303.068.625.156t.625.176q.293.088.547.176.244.078.41.137l4.14 1.416z" style="line-height:1.25"/><path d="M475.142 691.515v-3.897q0-1.25.196-2.197.185-.957.615-1.592.42-.644 1.113-.967.684-.322 1.69-.322.605 0 1.132.195.528.186.928.547.4.362.674.899.264.527.351 1.2h.098q.117-.673.342-1.259.215-.596.605-1.035.381-.44.967-.693.586-.254 1.426-.254.977 0 1.748.322.762.312 1.299.918.527.596.81 1.455.284.86.284 1.943v4.737zm6.055-1.817v-2.383q0-.82-.147-1.376-.146-.557-.43-.899-.292-.342-.722-.488-.44-.156-1.015-.156-1.172 0-1.68.752-.508.751-.508 2.373v2.177zm1.523 0h5.157v-2.597q0-.86-.196-1.436-.195-.586-.547-.937-.351-.362-.84-.518-.497-.156-1.093-.156-.547 0-1.006.166-.459.156-.781.527-.332.361-.508.967-.186.605-.186 1.504z" style="line-height:1.25"/><path d="M489.42 679.093h-14.278v-1.817H487.8v-5.595h1.62z" style="line-height:1.25"/><path d="M489.42 665.216v5.176h-.996l-.4-1.68h-11.485l-.4 1.68h-.997v-5.176h.996l.4 1.68h11.485l.4-1.68z" style="line-height:1.25"/><path d="M485.601 654.933q.948 0 1.7.341.742.333 1.26.958.517.625.79 1.523.264.898.264 2.021 0 1.084-.176 2.032-.166.937-.498 1.572h-1.738q.156-.332.312-.752.147-.43.264-.898.117-.47.195-.967.069-.498.069-.987 0-1.562-.586-2.304-.586-.752-1.68-.752-.527 0-.918.146-.39.137-.713.498-.332.352-.635.948-.312.595-.673 1.503-.342.87-.743 1.514-.41.635-.918 1.055-.507.41-1.152.615-.644.195-1.465.195-.86 0-1.533-.312-.674-.313-1.133-.879-.468-.566-.713-1.348-.244-.79-.244-1.738 0-1.162.225-2.09.215-.928.556-1.65l1.524.654q-.283.635-.488 1.445-.215.801-.215 1.66 0 1.192.556 1.846.547.655 1.485.655.556 0 .967-.147.4-.146.732-.488.322-.342.615-.899.283-.566.606-1.386.351-.889.722-1.553.371-.674.84-1.123.469-.45 1.084-.674.615-.234 1.455-.234z" style="line-height:1.25"/><path d="M489.42 641.925v1.816h-6.66v6.504h6.66v1.817h-14.278v-1.817h6.016v-6.504h-6.016v-1.816z" style="line-height:1.25"/><path d="M489.42 630.626v7.412h-14.278v-7.412h1.602v5.596h4.414v-5.225h1.582v5.225h5.078v-5.596z" style="line-height:1.25"/><path d="M482.144 616.974q1.807 0 3.174.468 1.357.47 2.275 1.358.909.889 1.368 2.187.459 1.29.459 2.93v3.574h-14.278v-3.974q0-1.494.45-2.705.449-1.211 1.337-2.061.88-.85 2.188-1.309 1.308-.468 3.027-.468zm.059 1.924q-1.426 0-2.461.322-1.045.322-1.719.937-.674.616-.996 1.514-.332.898-.332 2.041v1.963h11.162v-1.582q0-2.578-1.426-3.887-1.425-1.308-4.228-1.308z" style="line-height:1.25"/></g><use width="543.558" height="365.286" transform="translate(0 400)" xlink:href="#d"/><use width="543.558" height="365.286" transform="translate(0 400)" xlink:href="#e"/></g></svg>