<svg xmlns="http://www.w3.org/2000/svg" xmlns:xlink="http://www.w3.org/1999/xlink" width="14cm" height="9cm" viewBox="-60 -21 270 172"><g><line x1="154" x2="126.236" y1="70" y2="70" style="fill:none;fill-opacity:0;stroke-width:1;stroke:#000"/><polyline points="135.118 65 125.118 70 135.118 75" style="fill:none;fill-opacity:0;stroke-width:1;stroke:#000"/></g><text x="158" y="72.75" font-size="7.902" style="fill:#000;text-anchor:start;font-family:sans-serif;font-style:normal;font-weight:400"><tspan x="158" y="72.75">Stack Pointer</tspan></text><line x1="-20" x2="-4" y1="70" y2="70" style="fill:none;fill-opacity:0;stroke-width:1;stroke:#000"/><line x1="-20" x2="-4" y1="150" y2="150" style="fill:none;fill-opacity:0;stroke-width:1;stroke:#000"/><g><line x1="-12" x2="-12" y1="72.236" y2="147.764" style="fill:none;fill-opacity:0;stroke-width:1;stroke-dasharray:4;stroke:#000"/><polyline points="-7 81.118 -12 71.118 -17 81.118" style="fill:none;fill-opacity:0;stroke-width:1;stroke:#000"/><polyline points="-17 138.882 -12 148.882 -7 138.882" style="fill:none;fill-opacity:0;stroke-width:1;stroke:#000"/></g><line x1="0" x2="0" y1="-20" y2="0" style="fill:none;fill-opacity:0;stroke-width:1;stroke-dasharray:4;stroke:#000"/><line x1="120" x2="120" y1="-20" y2="0" style="fill:none;fill-opacity:0;stroke-width:1;stroke-dasharray:4;stroke:#000"/><g><rect width="120" height="20" x="0" y="0" style="fill:#0f0"/><rect width="120" height="20" x="0" y="0" style="fill:none;fill-opacity:0;stroke-width:1;stroke:#000"/></g><text x="60" y="13.125" font-size="9.031" style="fill:#000;text-anchor:middle;font-family:sans-serif;font-style:normal;font-weight:400"><tspan x="60" y="13.125">Return Address</tspan></text><g><rect width="120" height="20" x="0" y="20" style="fill:#ddd"/><rect width="120" height="20" x="0" y="20" style="fill:none;fill-opacity:0;stroke-width:1;stroke:#000"/></g><text x="60" y="33.125" font-size="9.031" style="fill:#000;text-anchor:middle;font-family:sans-serif;font-style:normal;font-weight:400"><tspan x="60" y="33.125">Local Variable 1</tspan></text><g><rect width="120" height="32" x="0" y="40" style="fill:#ccc"/><rect width="120" height="32" x="0" y="40" style="fill:none;fill-opacity:0;stroke-width:1;stroke-dasharray:4;stroke:#000"/></g><text x="60" y="59.125" font-size="9.031" style="fill:#000;text-anchor:middle;font-family:sans-serif;font-style:normal;font-weight:400"><tspan x="60" y="59.125">Local Variables 2..n</tspan></text><line x1="0" x2="120" y1="40" y2="40" style="fill:none;fill-opacity:0;stroke-width:1;stroke:#000"/><line x1="0" x2="120" y1="72" y2="72" style="fill:none;fill-opacity:0;stroke-width:1;stroke:#000"/><g><rect width="120" height="80" x="0" y="70" style="fill:#f33"/><rect width="120" height="80" x="0" y="70" style="fill:none;fill-opacity:0;stroke-width:1;stroke:#000"/></g><text x="60" y="113.125" font-size="9.031" style="fill:#fff;text-anchor:middle;font-family:sans-serif;font-style:normal;font-weight:400"><tspan x="60" y="113.125">Red Zone</tspan></text><text x="-20" y="112.75" font-size="7.902" style="fill:#000;text-anchor:end;font-family:sans-serif;font-style:normal;font-weight:400"><tspan x="-20" y="112.75">128 bytes</tspan></text></svg>