<svg xmlns="http://www.w3.org/2000/svg" xmlns:xlink="http://www.w3.org/1999/xlink" width="17cm" height="11cm" viewBox="-60 -21 340 212"><g><line x1="204" x2="176.236" y1="70" y2="70" style="fill:none;fill-opacity:0;stroke-width:1;stroke:#000"/><polyline points="185.118 65 175.118 70 185.118 75" style="fill:none;fill-opacity:0;stroke-width:1;stroke:#000"/></g><text x="208" y="72.75" font-size="7.902" style="fill:#000;text-anchor:start;font-family:sans-serif;font-style:normal;font-weight:400"><tspan x="208" y="72.75">Old Stack Pointer</tspan></text><line x1="-20" x2="-4" y1="70" y2="70" style="fill:none;fill-opacity:0;stroke-width:1;stroke:#000"/><line x1="-20" x2="-4" y1="190" y2="190" style="fill:none;fill-opacity:0;stroke-width:1;stroke:#000"/><g><line x1="-12" x2="-12" y1="72.236" y2="187.764" style="fill:none;fill-opacity:0;stroke-width:1;stroke-dasharray:4;stroke:#000"/><polyline points="-7 81.118 -12 71.118 -17 81.118" style="fill:none;fill-opacity:0;stroke-width:1;stroke:#000"/><polyline points="-17 178.882 -12 188.882 -7 178.882" style="fill:none;fill-opacity:0;stroke-width:1;stroke:#000"/></g><line x1="0" x2="0" y1="-20" y2="0" style="fill:none;fill-opacity:0;stroke-width:1;stroke-dasharray:4;stroke:#000"/><line x1="170" x2="170" y1="-20" y2="0" style="fill:none;fill-opacity:0;stroke-width:1;stroke-dasharray:4;stroke:#000"/><g><rect width="170" height="20" x="0" y="0" style="fill:#0f0"/><rect width="170" height="20" x="0" y="0" style="fill:none;fill-opacity:0;stroke-width:1;stroke:#000"/></g><text x="85" y="13.125" font-size="9.031" style="fill:#000;text-anchor:middle;font-family:sans-serif;font-style:normal;font-weight:400"><tspan x="85" y="13.125">Return Address</tspan></text><g><rect width="170" height="20" x="0" y="20" style="fill:#ddd"/><rect width="170" height="20" x="0" y="20" style="fill:none;fill-opacity:0;stroke-width:1;stroke:#000"/></g><text x="85" y="33.125" font-size="9.031" style="fill:#000;text-anchor:middle;font-family:sans-serif;font-style:normal;font-weight:400"><tspan x="85" y="33.125">Local Variable 1</tspan></text><g><rect width="170" height="32" x="0" y="40" style="fill:#ccc"/><rect width="170" height="32" x="0" y="40" style="fill:none;fill-opacity:0;stroke-width:1;stroke-dasharray:4;stroke:#000"/></g><text x="85" y="59.125" font-size="9.031" style="fill:#000;text-anchor:middle;font-family:sans-serif;font-style:normal;font-weight:400"><tspan x="85" y="59.125">Local Variables 2..n</tspan></text><line x1="0" x2="170" y1="40" y2="40" style="fill:none;fill-opacity:0;stroke-width:1;stroke:#000"/><line x1="0" x2="120" y1="72" y2="72" style="fill:none;fill-opacity:0;stroke-width:1;stroke:#000"/><g><rect width="170" height="120" x="0" y="70" style="fill:#f33"/><rect width="170" height="120" x="0" y="70" style="fill:none;fill-opacity:0;stroke-width:1;stroke:#000"/></g><text x="40" y="179.125" font-size="9.031" style="fill:#fff;text-anchor:middle;font-family:sans-serif;font-style:normal;font-weight:400"><tspan x="40" y="179.125">Red Zone</tspan></text><text x="-20" y="132.75" font-size="7.902" style="fill:#000;text-anchor:end;font-family:sans-serif;font-style:normal;font-weight:400"><tspan x="-20" y="132.75">128 bytes</tspan></text><g><rect width="140" height="30" x="30" y="70" style="fill:#ffc200"/><rect width="140" height="30" x="30" y="70" style="fill:none;fill-opacity:0;stroke-width:1;stroke:#000"/></g><text x="100" y="88.125" font-size="9.031" style="fill:#000;text-anchor:middle;font-family:sans-serif;font-style:normal;font-weight:400"><tspan x="100" y="88.125">Exception Stack Frame</tspan></text><g><rect width="140" height="30" x="30" y="100" style="fill:#ffe000"/><rect width="140" height="30" x="30" y="100" style="fill:none;fill-opacity:0;stroke-width:1;stroke:#000"/></g><text x="100" y="118.125" font-size="9.031" style="fill:#000;text-anchor:middle;font-family:sans-serif;font-style:normal;font-weight:400"><tspan x="100" y="118.125">Register Backup</tspan></text><g><rect width="140" height="30" x="30" y="130" style="fill:#c6db97"/><rect width="140" height="30" x="30" y="130" style="fill:none;fill-opacity:0;stroke-width:1;stroke:#000"/></g><text x="100" y="147.925" font-size="8.467" style="fill:#000;text-anchor:middle;font-family:sans-serif;font-style:normal;font-weight:400"><tspan x="100" y="147.925">Handler Function Stack Frame</tspan></text><line x1="30" x2="30" y1="70" y2="160" style="fill:none;fill-opacity:0;stroke-width:1;stroke-dasharray:4;stroke:#f33"/><line x1="30" x2="170" y1="160" y2="160" style="fill:none;fill-opacity:0;stroke-width:1;stroke-dasharray:4;stroke:#f33"/><g><line x1="204" x2="176.236" y1="160" y2="160" style="fill:none;fill-opacity:0;stroke-width:1;stroke:#000"/><polyline points="185.118 155 175.118 160 185.118 165" style="fill:none;fill-opacity:0;stroke-width:1;stroke:#000"/></g><text x="208" y="162.635" font-size="7.902" style="fill:#000;text-anchor:start;font-family:sans-serif;font-style:normal;font-weight:400"><tspan x="208" y="162.635">New Stack Pointer</tspan></text></svg>